<svg width="1024" height="720" viewBox="0 0 1024 720" xmlns="http://www.w3.org/2000/svg">
<rect x="0" y="0" width="1024" height="720" opacity="1" fill="#FFFFFF" stroke="none"/>
<line opacity="0.1" stroke="#000000" stroke-width="1" x1="48" y1="671" x2="48" y2="24"/>
<line opacity="0.1" stroke="#000000" stroke-width="1" x1="57" y1="671" x2="57" y2="24"/>
<line opacity="0.1" stroke="#000000" stroke-width="1" x1="66" y1="671" x2="66" y2="24"/>
<line opacity="0.1" stroke="#000000" stroke-width="1" x1="75" y1="671" x2="75" y2="24"/>
<line opacity="0.1" stroke="#000000" stroke-width="1" x1="85" y1="671" x2="85" y2="24"/>
<line opacity="0.1" stroke="#000000" stroke-width="1" x1="94" y1="671" x2="94" y2="24"/>
<line opacity="0.1" stroke="#000000" stroke-width="1" x1="103" y1="671" x2="103" y2="24"/>
<line opacity="0.1" stroke="#000000" stroke-width="1" x1="113" y1="671" x2="113" y2="24"/>
<line opacity="0.1" stroke="#000000" stroke-width="1" x1="122" y1="671" x2="122" y2="24"/>
<line opacity="0.1" stroke="#000000" stroke-width="1" x1="131" y1="671" x2="131" y2="24"/>
<line opacity="0.1" stroke="#000000" stroke-width="1" x1="141" y1="671" x2="141" y2="24"/>
<line opacity="0.1" stroke="#000000" stroke-width="1" x1="150" y1="671" x2="150" y2="24"/>
<line opacity="0.1" stroke="#000000" stroke-width="1" x1="159" y1="671" x2="159" y2="24"/>
<line opacity="0.1" stroke="#000000" stroke-width="1" x1="169" y1="671" x2="169" y2="24"/>
<line opacity="0.1" stroke="#000000" stroke-width="1" x1="178" y1="671" x2="178" y2="24"/>
<line opacity="0.1" stroke="#000000" stroke-width="1" x1="187" y1="671" x2="187" y2="24"/>
<line opacity="0.1" stroke="#000000" stroke-width="1" x1="197" y1="671" x2="197" y2="24"/>
<line opacity="0.1" stroke="#000000" stroke-width="1" x1="206" y1="671" x2="206" y2="24"/>
<line opacity="0.1" stroke="#000000" stroke-width="1" x1="215" y1="671" x2="215" y2="24"/>
<line opacity="0.1" stroke="#000000" stroke-width="1" x1="225" y1="671" x2="225" y2="24"/>
<line opacity="0.1" stroke="#000000" stroke-width="1" x1="234" y1="671" x2="234" y2="24"/>
<line opacity="0.1" stroke="#000000" stroke-width="1" x1="243" y1="671" x2="243" y2="24"/>
<line opacity="0.1" stroke="#000000" stroke-width="1" x1="253" y1="671" x2="253" y2="24"/>
<line opacity="0.1" stroke="#000000" stroke-width="1" x1="262" y1="671" x2="262" y2="24"/>
<line opacity="0.1" stroke="#000000" stroke-width="1" x1="271" y1="671" x2="271" y2="24"/>
<line opacity="0.1" stroke="#000000" stroke-width="1" x1="281" y1="671" x2="281" y2="24"/>
<line opacity="0.1" stroke="#000000" stroke-width="1" x1="290" y1="671" x2="290" y2="24"/>
<line opacity="0.1" stroke="#000000" stroke-width="1" x1="299" y1="671" x2="299" y2="24"/>
<line opacity="0.1" stroke="#000000" stroke-width="1" x1="309" y1="671" x2="309" y2="24"/>
<line opacity="0.1" stroke="#000000" stroke-width="1" x1="318" y1="671" x2="318" y2="24"/>
<line opacity="0.1" stroke="#000000" stroke-width="1" x1="327" y1="671" x2="327" y2="24"/>
<line opacity="0.1" stroke="#000000" stroke-width="1" x1="337" y1="671" x2="337" y2="24"/>
<line opacity="0.1" stroke="#000000" stroke-width="1" x1="346" y1="671" x2="346" y2="24"/>
<line opacity="0.1" stroke="#000000" stroke-width="1" x1="355" y1="671" x2="355" y2="24"/>
<line opacity="0.1" stroke="#000000" stroke-width="1" x1="365" y1="671" x2="365" y2="24"/>
<line opacity="0.1" stroke="#000000" stroke-width="1" x1="374" y1="671" x2="374" y2="24"/>
<line opacity="0.1" stroke="#000000" stroke-width="1" x1="383" y1="671" x2="383" y2="24"/>
<line opacity="0.1" stroke="#000000" stroke-width="1" x1="392" y1="671" x2="392" y2="24"/>
<line opacity="0.1" stroke="#000000" stroke-width="1" x1="402" y1="671" x2="402" y2="24"/>
<line opacity="0.1" stroke="#000000" stroke-width="1" x1="411" y1="671" x2="411" y2="24"/>
<line opacity="0.1" stroke="#000000" stroke-width="1" x1="420" y1="671" x2="420" y2="24"/>
<line opacity="0.1" stroke="#000000" stroke-width="1" x1="430" y1="671" x2="430" y2="24"/>
<line opacity="0.1" stroke="#000000" stroke-width="1" x1="439" y1="671" x2="439" y2="24"/>
<line opacity="0.1" stroke="#000000" stroke-width="1" x1="448" y1="671" x2="448" y2="24"/>
<line opacity="0.1" stroke="#000000" stroke-width="1" x1="458" y1="671" x2="458" y2="24"/>
<line opacity="0.1" stroke="#000000" stroke-width="1" x1="467" y1="671" x2="467" y2="24"/>
<line opacity="0.1" stroke="#000000" stroke-width="1" x1="476" y1="671" x2="476" y2="24"/>
<line opacity="0.1" stroke="#000000" stroke-width="1" x1="486" y1="671" x2="486" y2="24"/>
<line opacity="0.1" stroke="#000000" stroke-width="1" x1="495" y1="671" x2="495" y2="24"/>
<line opacity="0.1" stroke="#000000" stroke-width="1" x1="504" y1="671" x2="504" y2="24"/>
<line opacity="0.1" stroke="#000000" stroke-width="1" x1="514" y1="671" x2="514" y2="24"/>
<line opacity="0.1" stroke="#000000" stroke-width="1" x1="523" y1="671" x2="523" y2="24"/>
<line opacity="0.1" stroke="#000000" stroke-width="1" x1="532" y1="671" x2="532" y2="24"/>
<line opacity="0.1" stroke="#000000" stroke-width="1" x1="542" y1="671" x2="542" y2="24"/>
<line opacity="0.1" stroke="#000000" stroke-width="1" x1="551" y1="671" x2="551" y2="24"/>
<line opacity="0.1" stroke="#000000" stroke-width="1" x1="560" y1="671" x2="560" y2="24"/>
<line opacity="0.1" stroke="#000000" stroke-width="1" x1="570" y1="671" x2="570" y2="24"/>
<line opacity="0.1" stroke="#000000" stroke-width="1" x1="579" y1="671" x2="579" y2="24"/>
<line opacity="0.1" stroke="#000000" stroke-width="1" x1="588" y1="671" x2="588" y2="24"/>
<line opacity="0.1" stroke="#000000" stroke-width="1" x1="598" y1="671" x2="598" y2="24"/>
<line opacity="0.1" stroke="#000000" stroke-width="1" x1="607" y1="671" x2="607" y2="24"/>
<line opacity="0.1" stroke="#000000" stroke-width="1" x1="616" y1="671" x2="616" y2="24"/>
<line opacity="0.1" stroke="#000000" stroke-width="1" x1="626" y1="671" x2="626" y2="24"/>
<line opacity="0.1" stroke="#000000" stroke-width="1" x1="635" y1="671" x2="635" y2="24"/>
<line opacity="0.1" stroke="#000000" stroke-width="1" x1="644" y1="671" x2="644" y2="24"/>
<line opacity="0.1" stroke="#000000" stroke-width="1" x1="654" y1="671" x2="654" y2="24"/>
<line opacity="0.1" stroke="#000000" stroke-width="1" x1="663" y1="671" x2="663" y2="24"/>
<line opacity="0.1" stroke="#000000" stroke-width="1" x1="672" y1="671" x2="672" y2="24"/>
<line opacity="0.1" stroke="#000000" stroke-width="1" x1="682" y1="671" x2="682" y2="24"/>
<line opacity="0.1" stroke="#000000" stroke-width="1" x1="691" y1="671" x2="691" y2="24"/>
<line opacity="0.1" stroke="#000000" stroke-width="1" x1="700" y1="671" x2="700" y2="24"/>
<line opacity="0.1" stroke="#000000" stroke-width="1" x1="709" y1="671" x2="709" y2="24"/>
<line opacity="0.1" stroke="#000000" stroke-width="1" x1="719" y1="671" x2="719" y2="24"/>
<line opacity="0.1" stroke="#000000" stroke-width="1" x1="728" y1="671" x2="728" y2="24"/>
<line opacity="0.1" stroke="#000000" stroke-width="1" x1="737" y1="671" x2="737" y2="24"/>
<line opacity="0.1" stroke="#000000" stroke-width="1" x1="747" y1="671" x2="747" y2="24"/>
<line opacity="0.1" stroke="#000000" stroke-width="1" x1="756" y1="671" x2="756" y2="24"/>
<line opacity="0.1" stroke="#000000" stroke-width="1" x1="765" y1="671" x2="765" y2="24"/>
<line opacity="0.1" stroke="#000000" stroke-width="1" x1="775" y1="671" x2="775" y2="24"/>
<line opacity="0.1" stroke="#000000" stroke-width="1" x1="784" y1="671" x2="784" y2="24"/>
<line opacity="0.1" stroke="#000000" stroke-width="1" x1="793" y1="671" x2="793" y2="24"/>
<line opacity="0.1" stroke="#000000" stroke-width="1" x1="803" y1="671" x2="803" y2="24"/>
<line opacity="0.1" stroke="#000000" stroke-width="1" x1="812" y1="671" x2="812" y2="24"/>
<line opacity="0.1" stroke="#000000" stroke-width="1" x1="821" y1="671" x2="821" y2="24"/>
<line opacity="0.1" stroke="#000000" stroke-width="1" x1="831" y1="671" x2="831" y2="24"/>
<line opacity="0.1" stroke="#000000" stroke-width="1" x1="840" y1="671" x2="840" y2="24"/>
<line opacity="0.1" stroke="#000000" stroke-width="1" x1="849" y1="671" x2="849" y2="24"/>
<line opacity="0.1" stroke="#000000" stroke-width="1" x1="859" y1="671" x2="859" y2="24"/>
<line opacity="0.1" stroke="#000000" stroke-width="1" x1="868" y1="671" x2="868" y2="24"/>
<line opacity="0.1" stroke="#000000" stroke-width="1" x1="877" y1="671" x2="877" y2="24"/>
<line opacity="0.1" stroke="#000000" stroke-width="1" x1="887" y1="671" x2="887" y2="24"/>
<line opacity="0.1" stroke="#000000" stroke-width="1" x1="896" y1="671" x2="896" y2="24"/>
<line opacity="0.1" stroke="#000000" stroke-width="1" x1="905" y1="671" x2="905" y2="24"/>
<line opacity="0.1" stroke="#000000" stroke-width="1" x1="915" y1="671" x2="915" y2="24"/>
<line opacity="0.1" stroke="#000000" stroke-width="1" x1="924" y1="671" x2="924" y2="24"/>
<line opacity="0.1" stroke="#000000" stroke-width="1" x1="933" y1="671" x2="933" y2="24"/>
<line opacity="0.1" stroke="#000000" stroke-width="1" x1="943" y1="671" x2="943" y2="24"/>
<line opacity="0.1" stroke="#000000" stroke-width="1" x1="952" y1="671" x2="952" y2="24"/>
<line opacity="0.1" stroke="#000000" stroke-width="1" x1="961" y1="671" x2="961" y2="24"/>
<line opacity="0.1" stroke="#000000" stroke-width="1" x1="971" y1="671" x2="971" y2="24"/>
<line opacity="0.1" stroke="#000000" stroke-width="1" x1="980" y1="671" x2="980" y2="24"/>
<line opacity="0.1" stroke="#000000" stroke-width="1" x1="989" y1="671" x2="989" y2="24"/>
<line opacity="0.1" stroke="#000000" stroke-width="1" x1="48" y1="671" x2="999" y2="671"/>
<line opacity="0.1" stroke="#000000" stroke-width="1" x1="48" y1="661" x2="999" y2="661"/>
<line opacity="0.1" stroke="#000000" stroke-width="1" x1="48" y1="650" x2="999" y2="650"/>
<line opacity="0.1" stroke="#000000" stroke-width="1" x1="48" y1="639" x2="999" y2="639"/>
<line opacity="0.1" stroke="#000000" stroke-width="1" x1="48" y1="628" x2="999" y2="628"/>
<line opacity="0.1" stroke="#000000" stroke-width="1" x1="48" y1="618" x2="999" y2="618"/>
<line opacity="0.1" stroke="#000000" stroke-width="1" x1="48" y1="607" x2="999" y2="607"/>
<line opacity="0.1" stroke="#000000" stroke-width="1" x1="48" y1="596" x2="999" y2="596"/>
<line opacity="0.1" stroke="#000000" stroke-width="1" x1="48" y1="585" x2="999" y2="585"/>
<line opacity="0.1" stroke="#000000" stroke-width="1" x1="48" y1="574" x2="999" y2="574"/>
<line opacity="0.1" stroke="#000000" stroke-width="1" x1="48" y1="564" x2="999" y2="564"/>
<line opacity="0.1" stroke="#000000" stroke-width="1" x1="48" y1="553" x2="999" y2="553"/>
<line opacity="0.1" stroke="#000000" stroke-width="1" x1="48" y1="542" x2="999" y2="542"/>
<line opacity="0.1" stroke="#000000" stroke-width="1" x1="48" y1="531" x2="999" y2="531"/>
<line opacity="0.1" stroke="#000000" stroke-width="1" x1="48" y1="521" x2="999" y2="521"/>
<line opacity="0.1" stroke="#000000" stroke-width="1" x1="48" y1="510" x2="999" y2="510"/>
<line opacity="0.1" stroke="#000000" stroke-width="1" x1="48" y1="499" x2="999" y2="499"/>
<line opacity="0.1" stroke="#000000" stroke-width="1" x1="48" y1="488" x2="999" y2="488"/>
<line opacity="0.1" stroke="#000000" stroke-width="1" x1="48" y1="477" x2="999" y2="477"/>
<line opacity="0.1" stroke="#000000" stroke-width="1" x1="48" y1="467" x2="999" y2="467"/>
<line opacity="0.1" stroke="#000000" stroke-width="1" x1="48" y1="456" x2="999" y2="456"/>
<line opacity="0.1" stroke="#000000" stroke-width="1" x1="48" y1="445" x2="999" y2="445"/>
<line opacity="0.1" stroke="#000000" stroke-width="1" x1="48" y1="434" x2="999" y2="434"/>
<line opacity="0.1" stroke="#000000" stroke-width="1" x1="48" y1="423" x2="999" y2="423"/>
<line opacity="0.1" stroke="#000000" stroke-width="1" x1="48" y1="413" x2="999" y2="413"/>
<line opacity="0.1" stroke="#000000" stroke-width="1" x1="48" y1="402" x2="999" y2="402"/>
<line opacity="0.1" stroke="#000000" stroke-width="1" x1="48" y1="391" x2="999" y2="391"/>
<line opacity="0.1" stroke="#000000" stroke-width="1" x1="48" y1="380" x2="999" y2="380"/>
<line opacity="0.1" stroke="#000000" stroke-width="1" x1="48" y1="370" x2="999" y2="370"/>
<line opacity="0.1" stroke="#000000" stroke-width="1" x1="48" y1="359" x2="999" y2="359"/>
<line opacity="0.1" stroke="#000000" stroke-width="1" x1="48" y1="348" x2="999" y2="348"/>
<line opacity="0.1" stroke="#000000" stroke-width="1" x1="48" y1="337" x2="999" y2="337"/>
<line opacity="0.1" stroke="#000000" stroke-width="1" x1="48" y1="326" x2="999" y2="326"/>
<line opacity="0.1" stroke="#000000" stroke-width="1" x1="48" y1="316" x2="999" y2="316"/>
<line opacity="0.1" stroke="#000000" stroke-width="1" x1="48" y1="305" x2="999" y2="305"/>
<line opacity="0.1" stroke="#000000" stroke-width="1" x1="48" y1="294" x2="999" y2="294"/>
<line opacity="0.1" stroke="#000000" stroke-width="1" x1="48" y1="283" x2="999" y2="283"/>
<line opacity="0.1" stroke="#000000" stroke-width="1" x1="48" y1="273" x2="999" y2="273"/>
<line opacity="0.1" stroke="#000000" stroke-width="1" x1="48" y1="262" x2="999" y2="262"/>
<line opacity="0.1" stroke="#000000" stroke-width="1" x1="48" y1="251" x2="999" y2="251"/>
<line opacity="0.1" stroke="#000000" stroke-width="1" x1="48" y1="240" x2="999" y2="240"/>
<line opacity="0.1" stroke="#000000" stroke-width="1" x1="48" y1="229" x2="999" y2="229"/>
<line opacity="0.1" stroke="#000000" stroke-width="1" x1="48" y1="219" x2="999" y2="219"/>
<line opacity="0.1" stroke="#000000" stroke-width="1" x1="48" y1="208" x2="999" y2="208"/>
<line opacity="0.1" stroke="#000000" stroke-width="1" x1="48" y1="197" x2="999" y2="197"/>
<line opacity="0.1" stroke="#000000" stroke-width="1" x1="48" y1="186" x2="999" y2="186"/>
<line opacity="0.1" stroke="#000000" stroke-width="1" x1="48" y1="175" x2="999" y2="175"/>
<line opacity="0.1" stroke="#000000" stroke-width="1" x1="48" y1="165" x2="999" y2="165"/>
<line opacity="0.1" stroke="#000000" stroke-width="1" x1="48" y1="154" x2="999" y2="154"/>
<line opacity="0.1" stroke="#000000" stroke-width="1" x1="48" y1="143" x2="999" y2="143"/>
<line opacity="0.1" stroke="#000000" stroke-width="1" x1="48" y1="132" x2="999" y2="132"/>
<line opacity="0.1" stroke="#000000" stroke-width="1" x1="48" y1="122" x2="999" y2="122"/>
<line opacity="0.1" stroke="#000000" stroke-width="1" x1="48" y1="111" x2="999" y2="111"/>
<line opacity="0.1" stroke="#000000" stroke-width="1" x1="48" y1="100" x2="999" y2="100"/>
<line opacity="0.1" stroke="#000000" stroke-width="1" x1="48" y1="89" x2="999" y2="89"/>
<line opacity="0.1" stroke="#000000" stroke-width="1" x1="48" y1="78" x2="999" y2="78"/>
<line opacity="0.1" stroke="#000000" stroke-width="1" x1="48" y1="68" x2="999" y2="68"/>
<line opacity="0.1" stroke="#000000" stroke-width="1" x1="48" y1="57" x2="999" y2="57"/>
<line opacity="0.1" stroke="#000000" stroke-width="1" x1="48" y1="46" x2="999" y2="46"/>
<line opacity="0.1" stroke="#000000" stroke-width="1" x1="48" y1="35" x2="999" y2="35"/>
<line opacity="0.2" stroke="#000000" stroke-width="1" x1="57" y1="671" x2="57" y2="24"/>
<line opacity="0.2" stroke="#000000" stroke-width="1" x1="150" y1="671" x2="150" y2="24"/>
<line opacity="0.2" stroke="#000000" stroke-width="1" x1="243" y1="671" x2="243" y2="24"/>
<line opacity="0.2" stroke="#000000" stroke-width="1" x1="337" y1="671" x2="337" y2="24"/>
<line opacity="0.2" stroke="#000000" stroke-width="1" x1="430" y1="671" x2="430" y2="24"/>
<line opacity="0.2" stroke="#000000" stroke-width="1" x1="523" y1="671" x2="523" y2="24"/>
<line opacity="0.2" stroke="#000000" stroke-width="1" x1="616" y1="671" x2="616" y2="24"/>
<line opacity="0.2" stroke="#000000" stroke-width="1" x1="709" y1="671" x2="709" y2="24"/>
<line opacity="0.2" stroke="#000000" stroke-width="1" x1="803" y1="671" x2="803" y2="24"/>
<line opacity="0.2" stroke="#000000" stroke-width="1" x1="896" y1="671" x2="896" y2="24"/>
<line opacity="0.2" stroke="#000000" stroke-width="1" x1="989" y1="671" x2="989" y2="24"/>
<line opacity="0.2" stroke="#000000" stroke-width="1" x1="48" y1="618" x2="999" y2="618"/>
<line opacity="0.2" stroke="#000000" stroke-width="1" x1="48" y1="510" x2="999" y2="510"/>
<line opacity="0.2" stroke="#000000" stroke-width="1" x1="48" y1="402" x2="999" y2="402"/>
<line opacity="0.2" stroke="#000000" stroke-width="1" x1="48" y1="294" x2="999" y2="294"/>
<line opacity="0.2" stroke="#000000" stroke-width="1" x1="48" y1="186" x2="999" y2="186"/>
<line opacity="0.2" stroke="#000000" stroke-width="1" x1="48" y1="78" x2="999" y2="78"/>
<polyline fill="none" opacity="1" stroke="#000000" stroke-width="1" points="47,24 47,671 "/>
<text x="38" y="618" dy="0.5ex" text-anchor="end" font-family="sans-serif" font-size="9.67741935483871" opacity="1" fill="#000000">
0.0
</text>
<polyline fill="none" opacity="1" stroke="#000000" stroke-width="1" points="42,618 47,618 "/>
<text x="38" y="510" dy="0.5ex" text-anchor="end" font-family="sans-serif" font-size="9.67741935483871" opacity="1" fill="#000000">
0.2
</text>
<polyline fill="none" opacity="1" stroke="#000000" stroke-width="1" points="42,510 47,510 "/>
<text x="38" y="402" dy="0.5ex" text-anchor="end" font-family="sans-serif" font-size="9.67741935483871" opacity="1" fill="#000000">
0.4
</text>
<polyline fill="none" opacity="1" stroke="#000000" stroke-width="1" points="42,402 47,402 "/>
<text x="38" y="294" dy="0.5ex" text-anchor="end" font-family="sans-serif" font-size="9.67741935483871" opacity="1" fill="#000000">
0.6
</text>
<polyline fill="none" opacity="1" stroke="#000000" stroke-width="1" points="42,294 47,294 "/>
<text x="38" y="186" dy="0.5ex" text-anchor="end" font-family="sans-serif" font-size="9.67741935483871" opacity="1" fill="#000000">
0.8
</text>
<polyline fill="none" opacity="1" stroke="#000000" stroke-width="1" points="42,186 47,186 "/>
<text x="38" y="78" dy="0.5ex" text-anchor="end" font-family="sans-serif" font-size="9.67741935483871" opacity="1" fill="#000000">
1.0
</text>
<polyline fill="none" opacity="1" stroke="#000000" stroke-width="1" points="42,78 47,78 "/>
<polyline fill="none" opacity="1" stroke="#000000" stroke-width="1" points="48,672 999,672 "/>
<text x="57" y="682" dy="0.76em" text-anchor="middle" font-family="sans-serif" font-size="9.67741935483871" opacity="1" fill="#000000">
0.0
</text>
<polyline fill="none" opacity="1" stroke="#000000" stroke-width="1" points="57,672 57,677 "/>
<text x="150" y="682" dy="0.76em" text-anchor="middle" font-family="sans-serif" font-size="9.67741935483871" opacity="1" fill="#000000">
1.0
</text>
<polyline fill="none" opacity="1" stroke="#000000" stroke-width="1" points="150,672 150,677 "/>
<text x="243" y="682" dy="0.76em" text-anchor="middle" font-family="sans-serif" font-size="9.67741935483871" opacity="1" fill="#000000">
2.0
</text>
<polyline fill="none" opacity="1" stroke="#000000" stroke-width="1" points="243,672 243,677 "/>
<text x="337" y="682" dy="0.76em" text-anchor="middle" font-family="sans-serif" font-size="9.67741935483871" opacity="1" fill="#000000">
3.0
</text>
<polyline fill="none" opacity="1" stroke="#000000" stroke-width="1" points="337,672 337,677 "/>
<text x="430" y="682" dy="0.76em" text-anchor="middle" font-family="sans-serif" font-size="9.67741935483871" opacity="1" fill="#000000">
4.0
</text>
<polyline fill="none" opacity="1" stroke="#000000" stroke-width="1" points="430,672 430,677 "/>
<text x="523" y="682" dy="0.76em" text-anchor="middle" font-family="sans-serif" font-size="9.67741935483871" opacity="1" fill="#000000">
5.0
</text>
<polyline fill="none" opacity="1" stroke="#000000" stroke-width="1" points="523,672 523,677 "/>
<text x="616" y="682" dy="0.76em" text-anchor="middle" font-family="sans-serif" font-size="9.67741935483871" opacity="1" fill="#000000">
6.0
</text>
<polyline fill="none" opacity="1" stroke="#000000" stroke-width="1" points="616,672 616,677 "/>
<text x="709" y="682" dy="0.76em" text-anchor="middle" font-family="sans-serif" font-size="9.67741935483871" opacity="1" fill="#000000">
7.0
</text>
<polyline fill="none" opacity="1" stroke="#000000" stroke-width="1" points="709,672 709,677 "/>
<text x="803" y="682" dy="0.76em" text-anchor="middle" font-family="sans-serif" font-size="9.67741935483871" opacity="1" fill="#000000">
8.0
</text>
<polyline fill="none" opacity="1" stroke="#000000" stroke-width="1" points="803,672 803,677 "/>
<text x="896" y="682" dy="0.76em" text-anchor="middle" font-family="sans-serif" font-size="9.67741935483871" opacity="1" fill="#000000">
9.0
</text>
<polyline fill="none" opacity="1" stroke="#000000" stroke-width="1" points="896,672 896,677 "/>
<text x="989" y="682" dy="0.76em" text-anchor="middle" font-family="sans-serif" font-size="9.67741935483871" opacity="1" fill="#000000">
10.0
</text>
<polyline fill="none" opacity="1" stroke="#000000" stroke-width="1" points="989,672 989,677 "/>
<polyline fill="none" opacity="1" stroke="#FF0000" stroke-width="1" points="57,78 66,110 75,139 85,166 94,192 103,217 113,240 122,262 131,282 141,302 150,320 159,337 169,353 178,369 187,383 197,396 206,409 215,421 225,433 234,443 243,453 253,463 262,472 271,480 281,488 290,496 299,503 309,509 318,515 327,521 337,527 346,532 355,537 365,542 374,546 383,550 392,554 402,558 411,561 420,564 430,568 439,570 448,573 458,576 467,578 476,580 486,583 495,585 504,586 514,588 523,590 532,592 542,593 551,594 560,596 570,597 579,598 588,599 598,600 607,601 616,602 626,603 635,604 644,605 654,606 663,606 672,607 682,608 691,608 700,609 709,609 719,610 728,610 737,611 747,611 756,611 765,612 775,612 784,612 793,613 803,613 812,613 821,613 831,614 840,614 849,614 859,614 868,615 877,615 887,615 896,615 905,615 915,615 924,615 933,616 943,616 952,616 961,616 971,616 980,616 989,616 "/>
<polyline fill="none" opacity="1" stroke="#00FF00" stroke-width="1" points="57,618 66,586 75,558 85,533 94,511 103,491 113,473 122,457 131,444 141,432 150,421 159,412 169,405 178,399 187,393 197,389 206,386 215,384 225,383 234,382 243,382 253,382 262,383 271,385 281,387 290,389 299,391 309,394 318,397 327,401 337,404 346,408 355,412 365,416 374,420 383,425 392,429 402,433 411,437 420,442 430,446 439,450 448,455 458,459 467,463 476,468 486,472 495,476 504,480 514,484 523,488 532,492 542,496 551,499 560,503 570,507 579,510 588,514 598,517 607,520 616,523 626,526 635,529 644,532 654,535 663,538 672,541 682,543 691,546 700,548 709,551 719,553 728,555 737,558 747,560 756,562 765,564 775,566 784,568 793,569 803,571 812,573 821,574 831,576 840,578 849,579 859,580 868,582 877,583 887,584 896,586 905,587 915,588 924,589 933,590 943,591 952,592 961,593 971,594 980,595 989,596 "/>
<polyline fill="none" opacity="1" stroke="#0000FF" stroke-width="1" points="57,618 66,618 75,616 85,614 94,610 103,606 113,600 122,594 131,588 141,580 150,572 159,564 169,555 178,546 187,537 197,528 206,518 215,508 225,498 234,489 243,479 253,469 262,459 271,449 281,439 290,429 299,420 309,410 318,401 327,391 337,382 346,373 355,364 365,356 374,347 383,339 392,331 402,323 411,315 420,307 430,300 439,293 448,286 458,279 467,272 476,266 486,259 495,253 504,247 514,241 523,236 532,230 542,225 551,220 560,215 570,210 579,205 588,201 598,196 607,192 616,188 626,184 635,180 644,176 654,173 663,169 672,166 682,163 691,160 700,157 709,154 719,151 728,148 737,145 747,143 756,140 765,138 775,136 784,134 793,132 803,130 812,128 821,126 831,124 840,122 849,120 859,119 868,117 877,116 887,114 896,113 905,112 915,110 924,109 933,108 943,107 952,106 961,104 971,103 980,102 989,101 "/>
<rect x="929" y="318" width="66" height="59" opacity="0.8" fill="#FFFFFF" stroke="none"/>
<rect x="929" y="318" width="66" height="59" opacity="1" fill="none" stroke="#000000"/>
<text x="969" y="328" dy="0.76em" text-anchor="start" font-family="sans-serif" font-size="9.67741935483871" opacity="1" fill="#000000">
x_1
</text>
<text x="969" y="343" dy="0.76em" text-anchor="start" font-family="sans-serif" font-size="9.67741935483871" opacity="1" fill="#000000">
x_2
</text>
<text x="969" y="358" dy="0.76em" text-anchor="start" font-family="sans-serif" font-size="9.67741935483871" opacity="1" fill="#000000">
x_3
</text>
<polyline fill="none" opacity="1" stroke="#FF0000" stroke-width="1" points="939,332 959,332 "/>
<polyline fill="none" opacity="1" stroke="#00FF00" stroke-width="1" points="939,347 959,347 "/>
<polyline fill="none" opacity="1" stroke="#0000FF" stroke-width="1" points="939,362 959,362 "/>
</svg>
